<svg xmlns="http://www.w3.org/2000/svg" viewBox="0 0 1400 620" role="img" aria-label="Department service command centre overview"><defs><linearGradient id="g" x1="0" x2="1"><stop stop-color="#062c59"/><stop offset=".55" stop-color="#0b4f9c"/><stop offset="1" stop-color="#0f7ba6"/></linearGradient></defs><rect width="1400" height="620" fill="#f4f7fb"/><rect x="48" y="36" width="1304" height="548" rx="28" fill="#fff" stroke="#dbe4ee"/><rect x="48" y="36" width="1304" height="126" rx="28" fill="url(#g)"/><rect x="48" y="132" width="1304" height="30" fill="url(#g)"/><text x="84" y="78" font-family="Arial" font-size="14" fill="#d9edff">RAJASTHAN AGRICULTURE · CITIZEN EXPERIENCE OPERATIONS</text><text x="84" y="119" font-family="Arial" font-size="30" font-weight="700" fill="#fff">State Digital Service Command Centre</text><rect x="1138" y="72" width="170" height="54" rx="16" fill="#ffffff1f" stroke="#ffffff3a"/><text x="1223" y="94" text-anchor="middle" font-family="Arial" font-size="11" fill="#d9edff">EXPERIENCE READINESS</text><text x="1223" y="119" text-anchor="middle" font-family="Arial" font-size="24" font-weight="700" fill="#fff">94 / 100</text><g font-family="Arial"><g transform="translate(82 192)"><rect width="245" height="92" rx="15" fill="#f8fbff" stroke="#dbe4ee"/><text x="18" y="30" font-size="11" fill="#5f7187">TASK COMPLETION</text><text x="18" y="64" font-size="27" font-weight="700" fill="#122033">68.4%</text></g><g transform="translate(345 192)"><rect width="245" height="92" rx="15" fill="#f8fbff" stroke="#dbe4ee"/><text x="18" y="30" font-size="11" fill="#5f7187">MEDIAN COMPLETION</text><text x="18" y="64" font-size="27" font-weight="700" fill="#122033">6m 14s</text></g><g transform="translate(608 192)"><rect width="245" height="92" rx="15" fill="#f8fbff" stroke="#dbe4ee"/><text x="18" y="30" font-size="11" fill="#5f7187">CITIZEN SATISFACTION</text><text x="18" y="64" font-size="27" font-weight="700" fill="#122033">4.42 / 5</text></g><g transform="translate(871 192)"><rect width="245" height="92" rx="15" fill="#f8fbff" stroke="#dbe4ee"/><text x="18" y="30" font-size="11" fill="#5f7187">ZERO-RESULT SEARCH</text><text x="18" y="64" font-size="27" font-weight="700" fill="#122033">2.8%</text></g><g transform="translate(1134 192)"><rect width="174" height="92" rx="15" fill="#eaf3ff" stroke="#cfe3fb"/><text x="18" y="30" font-size="11" fill="#0b4f9c">MVP PROTOTYPE</text><text x="18" y="64" font-size="21" font-weight="700" fill="#0b4f9c">Synthetic KPIs</text></g></g><rect x="82" y="314" width="740" height="208" rx="18" fill="#f8fbff" stroke="#dbe4ee"/><text x="104" y="347" font-family="Arial" font-weight="700" font-size="17" fill="#122033">Service-quality operating loop</text><g font-family="Arial" font-size="13"><rect x="105" y="378" width="132" height="62" rx="12" fill="#eaf3ff"/><text x="171" y="405" text-anchor="middle" font-weight="700" fill="#0b4f9c">OBSERVE</text><text x="171" y="425" text-anchor="middle" fill="#5f7187">journey signal</text><text x="252" y="414" fill="#8da3b8">→</text><rect x="278" y="378" width="132" height="62" rx="12" fill="#eaf3ff"/><text x="344" y="405" text-anchor="middle" font-weight="700" fill="#0b4f9c">DIAGNOSE</text><text x="344" y="425" text-anchor="middle" fill="#5f7187">root friction</text><text x="425" y="414" fill="#8da3b8">→</text><rect x="451" y="378" width="132" height="62" rx="12" fill="#eaf3ff"/><text x="517" y="405" text-anchor="middle" font-weight="700" fill="#0b4f9c">ASSIGN</text><text x="517" y="425" text-anchor="middle" fill="#5f7187">owner + due date</text><text x="598" y="414" fill="#8da3b8">→</text><rect x="624" y="378" width="132" height="62" rx="12" fill="#eaf3ff"/><text x="690" y="405" text-anchor="middle" font-weight="700" fill="#0b4f9c">VERIFY</text><text x="690" y="425" text-anchor="middle" fill="#5f7187">completion lift</text></g><text x="105" y="482" font-family="Arial" font-size="13" fill="#5f7187">Example: bank-proof abandonment → Service Design Cell → eVault/reuse fix → post-change measurement</text><rect x="844" y="314" width="464" height="208" rx="18" fill="#fffaf1" stroke="#e4c079"/><text x="870" y="347" font-family="Arial" font-size="12" fill="#a26810" font-weight="700">PRIORITY INTERVENTION</text><text x="870" y="382" font-family="Arial" font-size="21" fill="#122033" font-weight="700">Document friction suppressing completion</text><text x="870" y="416" font-family="Arial" font-size="13" fill="#5f7187">Evidence: 31% negative document-stage feedback</text><text x="870" y="444" font-family="Arial" font-size="13" fill="#5f7187">Owner: Service Design Cell · Due: 2 days</text><rect x="870" y="466" width="205" height="34" rx="10" fill="#0b4f9c"/><text x="973" y="488" text-anchor="middle" font-family="Arial" font-size="13" font-weight="700" fill="#fff">Open intervention brief</text><text x="82" y="558" font-family="Arial" font-size="13" fill="#5f7187">Funnel · search intelligence · feedback · content freshness · GIGW · integration health · GIS · cross-channel continuity</text></svg>