<svg xmlns="http://www.w3.org/2000/svg" viewBox="0 0 1400 620" role="img" aria-label="Citizen Service Contract model"><rect width="1400" height="620" fill="#f4f7fb"/><rect x="55" y="42" width="1290" height="530" rx="28" fill="#fff" stroke="#dbe4ee"/><text x="92" y="92" font-family="Arial" font-size="15" fill="#0b4f9c" font-weight="700">CITIZEN SERVICE CONTRACT · RK-SVC-001</text><text x="92" y="132" font-family="Arial" font-size="32" fill="#122033" font-weight="700">Farm Fencing Assistance</text><rect x="1120" y="80" width="170" height="36" rx="18" fill="#eaf3ff"/><text x="1205" y="103" text-anchor="middle" font-family="Arial" font-size="14" fill="#0b4f9c" font-weight="700">MVP PROTOTYPE</text><g font-family="Arial"><g transform="translate(92 180)"><rect width="285" height="110" rx="16" fill="#f8fbff" stroke="#dbe4ee"/><text x="20" y="30" font-size="12" fill="#5f7187">OFFICIAL OWNER</text><text x="20" y="60" font-size="18" fill="#122033" font-weight="700">Agriculture Department</text><text x="20" y="86" font-size="12" fill="#0b4f9c">Authority remains with source system</text></g><g transform="translate(395 180)"><rect width="285" height="110" rx="16" fill="#f8fbff" stroke="#dbe4ee"/><text x="20" y="30" font-size="12" fill="#5f7187">ELIGIBILITY PRE-CHECK</text><text x="20" y="60" font-size="18" fill="#122033" font-weight="700">Versioned deterministic rules</text><text x="20" y="86" font-size="12" fill="#0b4f9c">Source + rule version + receipt</text></g><g transform="translate(698 180)"><rect width="285" height="110" rx="16" fill="#f8fbff" stroke="#dbe4ee"/><text x="20" y="30" font-size="12" fill="#5f7187">DOCUMENT PROMISE</text><text x="20" y="60" font-size="18" fill="#122033" font-weight="700">Reuse first, upload second</text><text x="20" y="86" font-size="12" fill="#0b4f9c">eVault / DigiLocker pattern</text></g><g transform="translate(1001 180)"><rect width="285" height="110" rx="16" fill="#f8fbff" stroke="#dbe4ee"/><text x="20" y="30" font-size="12" fill="#5f7187">NEXT STEP</text><text x="20" y="60" font-size="18" fill="#122033" font-weight="700">Authoritative RajKisan handoff</text><text x="20" y="86" font-size="12" fill="#0b4f9c">Portal does not sanction benefit</text></g></g><path d="M235 330 H1155" stroke="#b9cfe3" stroke-width="3" stroke-dasharray="8 8"/><g font-family="Arial"><g transform="translate(92 365)"><rect width="360" height="132" rx="18" fill="#082f5e"/><text x="24" y="35" font-size="13" fill="#cfe3fb">CHANNEL CONTINUITY</text><text x="24" y="66" font-size="20" fill="#fff" font-weight="700">Web · e-Mitra · Extension · SUTRA</text><text x="24" y="98" font-size="13" fill="#cfe3fb">Same governed service contract and resume receipt</text></g><g transform="translate(475 365)"><rect width="360" height="132" rx="18" fill="#f8fbff" stroke="#dbe4ee"/><text x="24" y="35" font-size="13" fill="#5f7187">ESCALATION</text><text x="24" y="66" font-size="20" fill="#122033" font-weight="700">No dead ends</text><text x="24" y="98" font-size="13" fill="#5f7187">Preserve service context → helpdesk / Sampark</text></g><g transform="translate(858 365)"><rect width="428" height="132" rx="18" fill="#f8fbff" stroke="#dbe4ee"/><text x="24" y="35" font-size="13" fill="#5f7187">FRESHNESS GOVERNANCE</text><text x="24" y="66" font-size="20" fill="#122033" font-weight="700">Owner · review date · Hindi parity</text><text x="24" y="98" font-size="13" fill="#5f7187">Supersession + broken-link monitoring + archival</text></g></g><text x="92" y="545" font-family="Arial" font-size="15" fill="#0b4f9c" font-weight="700">RULES EVALUATE · AI EXPLAINS · GOVERNMENT WORKFLOWS DECIDE</text></svg>